<svg width="63" height="64" viewBox="0 0 63 64" fill="none" xmlns="http://www.w3.org/2000/svg">
<g clip-path="url(#clip0_922_209)">
<mask id="mask0_922_209" style="mask-type:alpha" maskUnits="userSpaceOnUse" x="0" y="0" width="63" height="64">
<circle cx="31.5" cy="32" r="31.5" fill="#D9D9D9"/>
</mask>
<g mask="url(#mask0_922_209)">
<circle cx="31.5" cy="32" r="31.5" fill="white"/>
<path d="M73.8685 65.9034L43.8295 60.9301C36.0756 65.4746 19.9771 72.1178 15.2854 61.6922C25.8757 65.9559 26.2579 54.518 36.6112 56.6992C24.116 48.6463 20.808 54.725 17.0707 40.3865C28.3306 51.3884 28.6537 41.559 40.3656 45.2941C37.0145 40.7755 30.9004 42.5575 28.8996 25.9397C36.1412 37.6951 44.6696 32.3712 47.8294 38.7359C48.5011 31.3828 40.2114 30.5984 45.3585 15.1785C51.9516 32.2916 55.3359 24.786 58.629 35.5907C62.8915 28.7733 57.1866 22.1398 62.7293 16.1278C67.6699 31.8058 70.7225 21.637 77.6484 15.8831L73.8685 65.9034Z" fill="#333333"/>
</g>
</g>
<defs>
<clipPath id="clip0_922_209">
<rect width="63" height="63" fill="white" transform="translate(0 0.5)"/>
</clipPath>
</defs>
</svg>
