<svg width="133" height="116" viewBox="0 0 133 116" fill="none" xmlns="http://www.w3.org/2000/svg">
<mask id="mask0_3_4" style="mask-type:alpha" maskUnits="userSpaceOnUse" x="0" y="0" width="132" height="116">
<path d="M0.126805 26.6981C56.8008 38.8433 44.4052 -1.31359 89.4992 0.262905C97.4385 0.322549 101.117 1.47465 106.523 5.18012L131.798 61.5578C80.7914 51.2434 98.0066 122.928 40.557 115.002L0.126805 26.6981Z" fill="#034C8C"/>
</mask>
<g mask="url(#mask0_3_4)">
<path d="M0.126805 26.6981C56.8008 38.8433 44.4052 -1.31359 89.4992 0.262905C97.4385 0.322549 101.117 1.47465 106.523 5.18012L131.798 61.5578C80.7914 51.2434 98.0066 122.928 40.557 115.002L0.126805 26.6981Z" fill="#034C8C"/>
<path d="M20.8573 72.3264L39.0842 65.87L47.2023 43.2005C81.1868 23.4828 93.663 22.0601 115.5 25.5001L117.5 29.5001C93.8109 25.5624 83.6875 33.6896 54 51.0001L45 76.0001L26.5 84.0001L20.8573 72.3264Z" fill="#038C33"/>
<path d="M17.2278 65.1556L35.382 58.7334L43.4358 36.0942C77.2722 16.446 93.232 20.5275 115 24.0001L116.5 27.0001C92.8854 23.0273 78.0434 25.8128 48.4853 43.0625L40.4318 66.1788L20.7646 72.8912L17.2278 65.1556Z" fill="#F4AD04"/>
<path d="M12.5848 58.1377L-9.89996 21.1882L32.3814 1.00262C66.4602 -18.7595 80.5352 -20.2781 102.416 -16.8588L115 23.9999C91.2632 20.0846 73.8466 18.5851 44.0766 35.9344L35.9167 59.1008L16.121 65.8735L12.5848 58.1377Z" fill="#DA251C"/>
<path d="M72.3065 46.6492C71.8956 45.8552 72.2062 44.8784 73.0002 44.4675C73.7942 44.0567 74.7709 44.3672 75.1818 45.1612C75.5927 45.9552 75.2821 46.932 74.4881 47.3428C73.6941 47.7537 72.7174 47.4432 72.3065 46.6492Z" fill="#038C33"/>
<path d="M72.3065 46.6492C71.8956 45.8552 72.2062 44.8784 73.0002 44.4675C73.7942 44.0567 74.7709 44.3672 75.1818 45.1612C75.5927 45.9552 75.2821 46.932 74.4881 47.3428C73.6941 47.7537 72.7174 47.4432 72.3065 46.6492ZM72.3065 46.6492L65.0001 50.5L59.0001 48" stroke="#038C33" stroke-linecap="square"/>
<path d="M92.6854 16.4052C92.2946 15.6217 92.6129 14.6696 93.3964 14.2788C94.1799 13.8879 95.1319 14.2062 95.5228 14.9898C95.9137 15.7733 95.5953 16.7253 94.8118 17.1162C94.0283 17.507 93.0763 17.1887 92.6854 16.4052Z" fill="#F4AD04"/>
<path d="M92.6854 16.4052C92.2946 15.6217 92.6129 14.6696 93.3964 14.2788C94.1799 13.8879 95.1319 14.2062 95.5228 14.9898C95.9137 15.7733 95.5953 16.7253 94.8118 17.1162C94.0283 17.507 93.0763 17.1887 92.6854 16.4052ZM92.6854 16.4052L82.6008 17.9052L77.8899 23.7363" stroke="#F4AD04" stroke-linecap="square"/>
<path d="M91.5524 10.3207C91.1615 9.5372 91.4798 8.58518 92.2634 8.19432C93.0469 7.80347 93.9989 8.12179 94.3897 8.9053C94.7806 9.68882 94.4623 10.6408 93.6788 11.0317C92.8953 11.4226 91.9432 11.1042 91.5524 10.3207Z" fill="#F4AD04"/>
<path d="M91.5524 10.3207C91.1615 9.5372 91.4798 8.58518 92.2634 8.19432C93.0469 7.80347 93.9989 8.12179 94.3897 8.9053C94.7806 9.68882 94.4623 10.6408 93.6788 11.0317C92.8953 11.4226 91.9432 11.1042 91.5524 10.3207ZM91.5524 10.3207L80.1005 12.4053L71.3896 25.2364" stroke="#F4AD04" stroke-linecap="square"/>
<path d="M59.1304 32.5764C58.8136 31.9394 59.0732 31.1662 59.7102 30.8495C60.3472 30.5327 61.1204 30.7923 61.4372 31.4293C61.754 32.0664 61.4943 32.8395 60.8573 33.1563C60.2203 33.4731 59.4471 33.2134 59.1304 32.5764Z" fill="#DA251C"/>
<path d="M59.1304 32.5764C58.8136 31.9394 59.0732 31.1662 59.7102 30.8495C60.3472 30.5327 61.1204 30.7923 61.4372 31.4293C61.754 32.0664 61.4943 32.8395 60.8573 33.1563C60.2203 33.4731 59.4471 33.2134 59.1304 32.5764ZM59.1304 32.5764L48.1544 38.5892L43.9995 36.4983" stroke="#DA251C" stroke-linecap="square"/>
<path d="M72.7729 35.5672C72.4562 34.9301 72.7158 34.1569 73.3528 33.8402C73.9898 33.5234 74.763 33.783 75.0798 34.4201C75.3965 35.0571 75.1369 35.8303 74.4999 36.147C73.8629 36.4638 73.0897 36.2042 72.7729 35.5672Z" fill="#F4AD04"/>
<path d="M72.7729 35.5672C72.4562 34.9301 72.7158 34.1569 73.3528 33.8402C73.9898 33.5234 74.763 33.783 75.0798 34.4201C75.3965 35.0571 75.1369 35.8303 74.4999 36.147C73.8629 36.4638 73.0897 36.2042 72.7729 35.5672ZM72.7729 35.5672L64.5 39.9999L58.5 36.9999" stroke="#F4AD04" stroke-linecap="square"/>
<path d="M38.7924 72.0624C38.5988 71.3778 38.9968 70.6659 39.6814 70.4723C40.366 70.2787 41.0779 70.6767 41.2715 71.3613C41.4651 72.0459 41.0671 72.7578 40.3825 72.9514C39.698 73.145 38.9861 72.747 38.7924 72.0624Z" fill="#F4AD04"/>
<path d="M38.7924 72.0624C38.5988 71.3778 38.9968 70.6659 39.6814 70.4723C40.366 70.2787 41.0779 70.6767 41.2715 71.3613C41.4651 72.0459 41.0671 72.7578 40.3825 72.9514C39.698 73.145 38.9861 72.747 38.7924 72.0624ZM38.7924 72.0624L29.8429 75.5922L23.0004 70.6825" stroke="#F4AD04" stroke-linecap="square"/>
<path d="M132.298 61.5477L112.802 62.4839C108.557 66.3404 99.3675 72.6155 95.0183 66.7773C102.231 68.0042 100.924 60.859 107.707 60.826C98.7884 57.5039 97.5371 61.7168 93.2571 53.324C101.8 58.6405 100.674 52.5008 108.518 53.2497C105.807 50.8957 102.217 52.8193 98.7167 42.7804C104.844 49.1021 109.468 44.6585 112.308 48.1831C111.735 43.5326 106.435 44.1557 107.576 33.9029C114.02 43.6344 115.127 38.5262 118.651 44.7868C120.4 39.988 115.929 36.6373 118.589 32.1666C123.804 41.2292 124.343 34.5136 127.905 30.0179L132.298 61.5477Z" fill="#F4AD04"/>
</g>
</svg>
