<svg width="63" height="64" viewBox="0 0 63 64" fill="none" xmlns="http://www.w3.org/2000/svg">
<g clip-path="url(#clip0_1_78)">
<mask id="mask0_1_78" style="mask-type:alpha" maskUnits="userSpaceOnUse" x="0" y="0" width="63" height="64">
<circle cx="31.5" cy="32" r="31.5" fill="#D9D9D9"/>
</mask>
<g mask="url(#mask0_1_78)">
<circle cx="31.5" cy="32" r="31.5" fill="#034C8C"/>
<path d="M73.8682 65.9034L43.8292 60.9301C36.0754 65.4746 19.9769 72.1178 15.2851 61.6922C25.8754 65.9559 26.2577 54.518 36.611 56.6992C24.1157 48.6463 20.8077 54.725 17.0704 40.3865C28.3303 51.3884 28.6535 41.559 40.3653 45.2941C37.0143 40.7755 30.9002 42.5575 28.8994 25.9397C36.141 37.6951 44.6693 32.3712 47.8291 38.7359C48.5009 31.3828 40.2111 30.5984 45.3583 15.1785C51.9513 32.2916 55.3357 24.786 58.6287 35.5907C62.8913 28.7733 57.1864 22.1398 62.729 16.1278C67.6697 31.8058 70.7223 21.637 77.6482 15.8831L73.8682 65.9034Z" fill="#F4AD04"/>
</g>
</g>
<defs>
<clipPath id="clip0_1_78">
<rect width="63" height="63" fill="white" transform="translate(0 0.5)"/>
</clipPath>
</defs>
</svg>
