<svg width="74" height="74" viewBox="0 0 74 74" fill="none" xmlns="http://www.w3.org/2000/svg">
<g clip-path="url(#clip0_236_404)">
<mask id="mask0_236_404" style="mask-type:alpha" maskUnits="userSpaceOnUse" x="0" y="0" width="74" height="74">
<circle cx="37" cy="37" r="37" fill="#D9D9D9"/>
</mask>
<g mask="url(#mask0_236_404)">
<circle cx="37" cy="37" r="37" fill="#034C8C"/>
<path d="M72.2357 93.9865L38.862 77.0361C28.0899 79.4932 6.75833 81.3216 5.11763 67.3628C15.9543 76.2816 20.6366 63.0145 31.9663 69.4041C20.2992 55.3381 14.171 61.2395 15.0977 43.0471C24.2249 60.1128 28.2424 48.7095 40.5895 57.4238C38.3339 50.8861 30.5066 50.7117 34.3128 30.49C38.4504 46.9516 50.4191 43.8675 51.7672 52.4986C55.2767 44.1272 45.849 40.1388 57.5913 23.9675C58.9853 46.4698 65.7313 38.9239 65.5919 52.8093C73.1126 46.3953 68.8804 36.5069 77.6036 31.5109C77.5918 51.7192 84.9347 40.9283 95.1839 36.7469L72.2357 93.9865Z" fill="#F4AD04"/>
</g>
</g>
<defs>
<clipPath id="clip0_236_404">
<rect width="74" height="74" fill="white"/>
</clipPath>
</defs>
</svg>
