<svg width="485" height="484" viewBox="0 0 485 484" fill="none" xmlns="http://www.w3.org/2000/svg">
<path d="M400.015 329.211C403.147 328.094 405.952 326.288 408.522 324.179C425.906 309.959 464.375 340.985 464.375 340.985C464.496 303.41 431.85 297.267 431.85 297.267C408.117 293.086 392.027 286.296 382.026 280.732C400.988 283.239 413.94 275.549 420.501 270.106C423.058 267.986 425.078 265.328 426.771 262.47C438.241 243.169 485.006 259.178 485.006 259.178C472.26 223.826 439.475 229.208 439.475 229.208C415.742 233.389 398.297 232.507 386.996 230.695C405.668 226.575 415.21 214.915 419.509 207.564C421.184 204.694 422.176 201.51 422.792 198.248C426.964 176.193 476.39 175.256 476.39 175.256C452.312 146.392 423.349 162.655 423.349 162.655C402.482 174.694 385.781 179.823 374.54 181.986C390.679 171.734 395.655 157.514 397.173 149.141C397.765 145.873 397.602 142.544 397.064 139.264C393.43 117.111 439.554 99.3447 439.554 99.3447C407.047 80.4484 385.394 105.627 385.394 105.627C369.909 124.071 355.971 134.6 346.151 140.472C357.803 125.321 357.616 110.267 356.177 101.87C355.614 98.5956 354.32 95.5207 352.694 92.6271C341.695 73.0542 378.954 40.5958 378.954 40.5958C341.937 33.9507 330.212 65.0075 330.212 65.0075C321.971 87.6311 312.484 102.287 305.264 111.161C311.026 92.9412 305.693 78.8596 301.473 71.4654C299.828 68.5778 297.555 66.1312 295.039 63.9685C278.006 49.3311 301.908 6.10155 301.908 6.10155C264.848 12.505 264.461 45.6944 264.461 45.6944C264.461 69.7679 260.561 86.7854 256.818 97.5867C255.996 78.4971 246.164 67.0856 239.664 61.5823C237.131 59.4317 234.162 57.9093 231.048 56.7374C210.03 48.8055 217.691 0.012207 217.691 0.012207C185.057 18.691 196.056 50.0137 196.056 50.0137C204.297 72.6373 206.456 89.9569 206.637 101.393C199.333 83.7347 186.182 76.3707 178.188 73.4166C175.068 72.2628 171.761 71.846 168.435 71.8097C145.966 71.5379 136.46 23.0708 136.46 23.0708C112.189 51.7777 133.25 77.446 133.25 77.446C148.741 95.8892 156.698 111.427 160.78 122.107C147.87 108.007 132.996 105.585 124.47 105.543C121.144 105.525 117.891 106.268 114.753 107.361C93.5474 114.779 68.0246 72.4863 68.0246 72.4863C55.0425 107.754 83.6188 124.681 83.6188 124.681C104.486 136.714 117.286 148.597 124.778 157.242C107.823 148.404 93.0092 151.207 84.9914 154.082C81.8592 155.2 79.0536 157.006 76.4838 159.115C59.0997 173.335 20.6311 142.308 20.6311 142.308C20.5102 179.884 53.1559 186.027 53.1559 186.027C76.8889 190.208 92.979 196.998 102.98 202.562C84.0179 200.055 71.066 207.745 64.5054 213.188C61.9477 215.308 59.9281 217.966 58.2351 220.824C46.7646 240.125 0 224.116 0 224.116C12.7463 259.468 45.5311 254.085 45.5311 254.085C69.2641 249.905 86.7086 250.787 98.0098 252.599C79.3378 256.719 69.7962 268.378 65.4971 275.73C63.8222 278.6 62.8305 281.783 62.2138 285.046C58.0416 307.101 8.61644 308.038 8.61644 308.038C32.6941 336.902 61.6575 320.639 61.6575 320.639C82.5244 308.6 99.2252 303.471 110.466 301.308C94.3274 311.56 89.351 325.78 87.8333 334.153C87.2407 337.421 87.404 340.75 87.9422 344.03C91.5762 366.183 45.4525 383.949 45.4525 383.949C77.9592 402.845 99.6122 377.666 99.6122 377.666C115.098 359.223 129.035 348.694 138.855 342.822C127.203 357.973 127.39 373.027 128.829 381.424C129.392 384.698 130.686 387.773 132.312 390.667C143.311 410.24 106.052 442.698 106.052 442.698C143.069 449.343 154.794 418.286 154.794 418.286C163.035 395.663 172.522 381.007 179.742 372.133C173.98 390.353 179.313 404.434 183.533 411.828C185.178 414.716 187.452 417.163 189.967 419.325C207 433.963 183.098 477.192 183.098 477.192C220.158 470.789 220.545 437.599 220.545 437.599C220.545 413.526 224.445 396.508 228.188 385.707C229.01 404.797 238.842 416.208 245.342 421.712C247.875 423.862 250.844 425.384 253.958 426.556C274.976 434.488 267.315 483.282 267.315 483.282C299.949 464.603 288.95 433.28 288.95 433.28C280.709 410.656 278.55 393.337 278.369 381.901C285.673 399.559 298.824 406.923 306.818 409.877C309.938 411.031 313.246 411.448 316.571 411.49C339.04 411.762 348.546 460.229 348.546 460.229C372.817 431.522 351.757 405.854 351.757 405.854C336.265 387.411 328.308 371.873 324.226 361.193C337.136 375.286 352.01 377.715 360.536 377.757C363.862 377.775 367.115 377.032 370.253 375.939C391.459 368.52 416.981 410.814 416.981 410.814C429.964 375.546 401.387 358.619 401.387 358.619C380.52 346.585 367.72 334.703 360.228 326.058C377.183 334.896 391.997 332.093 400.015 329.217V329.211Z" fill="#F4AD04"/>
</svg>
